:SAMPLES-PER-SECOND 30
:FRAME-RANGE 1-3549
:FULLY-SPECIFIED
:DEGREES
1997
root  22.1433 38.2492 -46.2516 177.692 6.96155 176.311
RightUpLeg  -4.24351 -1.36644 -12.4553
RightLeg  59.0501 -0.476645 -1.33027
RightFoot  14.0458 -2.6544 12.1791
RightToes  -1.11029e-010 1.2921e-014 -6.02303e-014
Spine  7.89851 2.23506 -2.4821
Spine1  -0.0922565 2.7704 -6.77319
HEad  1.17293 43.5714 -6.64658
LeftShoulder1  1.20714 0.437955 -33.3073
LeftArm  16.1771 15.3038 -24.5555
LeftForeArm  -1.82384 -2.59684 -18.9079
LeftHand  0.183005 1.93893 -6.64099
RightShoulder  7.82861 10.2201 49.9677
RightArm  4.83848 0.694789 12.0429
RightForeArm  16.0666 0.145765 16.5436
RightHand  0.154202 3.78286 1.69045
LeftUpLeg  -19.4473 12.3633 -13.1669
LeftLeg  22.6633 11.0347 4.22107
LeftFoot  -4.61187 -0.48084 8.63471
LeftToes  -1.9349e-011 -1.19469e-011 -2.02219e-012
1998
root  22.0681 38.3063 -47.6296 177.38 4.0238 176.174
RightUpLeg  -8.78407 -0.969586 -12.477
RightLeg  64.8807 -0.767218 -2.39645
RightFoot  7.87461 -2.37997 14.3141
RightToes  -1.11029e-010 1.2921e-014 -6.02303e-014
Spine  8.15068 1.83611 -3.33386
Spine1  -0.0298008 2.04153 -6.17974
HEad  1.91094 44.0657 -7.00658
LeftShoulder1  1.30804 0.230967 -33.8975
LeftArm  19.0135 11.3575 -26.9912
LeftForeArm  -1.87869 -4.32599 -18.5343
LeftHand  0.207186 1.5924 -6.70893
RightShoulder  7.67847 9.93371 50.0549
RightArm  8.04832 0.304504 12.3083
RightForeArm  17.2279 -0.686843 17.013
RightHand  0.332636 4.3212 3.69098
LeftUpLeg  -16.7872 9.69137 -13.4023
LeftLeg  23.6535 11 4.41748
LeftFoot  -7.16208 -0.243865 7.85461
LeftToes  -1.9349e-011 -1.19469e-011 -2.02219e-012
1999
root  21.9703 38.5042 -49.0371 177.284 0.625305 176.87
RightUpLeg  -12.89 -1.34456 -11.4406
RightLeg  66.1198 -1.21577 -3.6587
RightFoot  6.09781 -1.88029 12.489
RightToes  -1.11029e-010 1.2921e-014 -6.02303e-014
Spine  8.13722 1.31649 -3.20166
Spine1  -0.130386 1.3426 -5.37779
HEad  2.71781 44.0084 -7.19946
LeftShoulder1  1.41585 -0.0230941 -34.077
LeftArm  19.3933 7.57194 -30.2642
LeftForeArm  -0.315785 -6.06597 -17.751
LeftHand  0.22668 0.720681 -5.79832
RightShoulder  7.14722 9.02034 49.9947
RightArm  13.1568 -0.546279 12.635
RightForeArm  18.3692 0.895426 17.129
RightHand  0.399956 4.90604 4.20119
LeftUpLeg  -13.443 7.08522 -12.6647
LeftLeg  23.0844 10.5065 3.67291
LeftFoot  -8.96118 -0.106045 7.69281
LeftToes  -1.9349e-011 -1.19469e-011 -2.02219e-012
2000
root  21.8658 38.7434 -50.4607 177.421 -2.88422 177.798
RightUpLeg  -16.4314 -1.67 -10.1192
RightLeg  63.599 -2.22377 -5.44403
RightFoot  4.00728 -1.49629 11.2753
RightToes  -1.11029e-010 1.2921e-014 -6.02303e-014
Spine  7.717 0.738874 -3.07155
Spine1  -0.287646 0.620608 -4.18566
HEad  3.3602 43.6678 -7.05203
LeftShoulder1  1.45802 -0.14549 -33.8903
LeftArm  18.9022 4.66132 -33.9772
LeftForeArm  1.5116 -9.1725 -15.9787
LeftHand  0.246876 -0.131667 -5.21599
RightShoulder  6.5553 8.04092 49.7509
RightArm  19.1232 -1.84716 13.2499
RightForeArm  16.55 3.71226 16.8921
RightHand  0.347045 4.9669 3.58113
LeftUpLeg  -9.99275 5.05495 -11.6328
LeftLeg  21.5989 9.30536 2.50412
LeftFoot  -10.4048 0.00121014 7.5111
LeftToes  -1.9349e-011 -1.19469e-011 -2.02219e-012
2001
root  21.7419 38.9866 -51.878 177.534 -6.16376 178.486
RightUpLeg  -18.9997 -1.65986 -9.26527
RightLeg  57.5511 -3.78829 -6.83936
RightFoot  2.2499 -1.26407 10.7082
RightToes  -1.11029e-010 1.2921e-014 -6.02303e-014
Spine  7.4006 0.257727 -3.16078
Spine1  -0.692276 0.0495098 -3.0264
HEad  3.74913 43.1264 -6.6437
LeftShoulder1  1.50432 -0.268456 -33.8179
LeftArm  25.2137 2.50607 -37.2988
LeftForeArm  -2.08104 -15.1304 -12.0813
LeftHand  0.254588 -0.906671 -4.62879
RightShoulder  5.98411 7.06272 49.6263
RightArm  23.6479 -3.24204 13.7475
RightForeArm  13.4122 6.42825 16.2828
RightHand  0.327014 4.91017 3.37924
LeftUpLeg  -6.24345 3.78736 -10.6569
LeftLeg  19.2802 7.329 1.01066
LeftFoot  -11.3652 0.0700258 7.51408
LeftToes  -1.9349e-011 -1.19469e-011 -2.02219e-012
2002
root  21.607 39.1743 -53.2661 177.806 -9.72064 179.268
RightUpLeg  -20.3665 -1.88254 -8.62874
RightLeg  48.1117 -6.18946 -7.66234
RightFoot  0.993194 -1.19784 11.1157
RightToes  -1.11029e-010 1.2921e-014 -6.02303e-014
Spine  7.03605 -0.333432 -3.01532
Spine1  -1.21427 -0.561513 -1.87306
HEad  3.82877 42.2452 -6.40188
LeftShoulder1  1.53844 -0.369015 -33.6667
LeftArm  34.0186 0.765055 -39.9528
LeftForeArm  -6.68954 -21.5359 -6.34425
LeftHand  0.248247 -1.43384 -4.10907
RightShoulder  5.48217 6.16856 49.6719
RightArm  26.8299 -4.51763 13.9889
RightForeArm  10.0613 8.64655 15.5287
RightHand  0.327166 4.84233 3.40769
LeftUpLeg  -2.79812 3.47471 -9.51041
LeftLeg  16.8531 4.2781 -0.319727
LeftFoot  -12.1608 0.130573 8.00206
LeftToes  -1.9349e-011 -1.19469e-011 -2.02219e-012
2003
root  21.4562 39.3032 -54.6512 178.381 -13.1623 179.965
RightUpLeg  -20.5014 -1.96377 -8.34994
RightLeg  35.3302 -9.20232 -7.18656
RightFoot  1.08974 -1.26377 11.6354
RightToes  -1.11029e-010 1.2921e-014 -6.02303e-014
Spine  6.09401 -0.849733 -2.66651
Spine1  -1.33416 -1.01514 -1.00899
HEad  3.59832 41.2052 -6.37606
LeftShoulder1  1.57255 -0.473256 -33.4863
LeftArm  31.2613 -1.06037 -41.3296
LeftForeArm  1.7966 -26.5256 -5.60641
LeftHand  0.221899 -1.80098 -3.43763
RightShoulder  4.98645 5.29898 49.6503
RightArm  28.8001 -5.30647 14.3155
RightForeArm  8.33957 9.87236 15.0166
RightHand  0.347157 4.91264 3.6047
LeftUpLeg  -0.0241614 3.37454 -8.36522
LeftLeg  14.8783 0.887355 -1.06997
LeftFoot  -13.0205 0.195612 7.98362
LeftToes  -1.9349e-011 -1.19469e-011 -2.02219e-012
